# xmcd
#
# Track frame offsets:
#	150
#	15405
#	29042
#	72010
#	96902
#	115157
#	135757
#	144525
#	178575
#	207412
#	214627
#	223077
#	238852
#	250415
#	265912
#	283725
#	303577
#	314887
#
# Disc length: 4411 seconds
#
# Revision: 29
# Processed by: cddbd v1.5.2PL0 Copyright (c) Steve Scherf et al.
# Submitted via: audiograbber 1.83.01
#
DISCID=19113912
DTITLE=Nirvana - With The Lights Out [CD3]
DYEAR=2004
DGENRE=Alternative
TTITLE0=Rape Me [Solo Home Demo 1991]
TTITLE1=Rape Me [Outtake 1992]
TTITLE2=Scentless Apprentice [Rehearsal 1992]
TTITLE3=Heart Shaped Box [Outtake 1993]
TTITLE4=I Hate Myself And I Want To Die [Outtake 1993]
TTITLE5=Milk It [Outtake 1993]
TTITLE6=Moist Vagina [Outtake 1993]
TTITLE7=Gallons Of Rubbing Alcohol Flow Through The Strip [Bonus Track Non-US V
TTITLE7=ersions Of In Utero]
TTITLE8=The Other Improv [Outtake 1993]
TTITLE9=Serve The Servants [Solo Home Demo1992]
TTITLE10=Very Ape [Solo Home Demo 1992]
TTITLE11=Pennyroyal Tea [Solo Home Demo 1993]
TTITLE12=Marigold [B-Side]
TTITLE13=Sappy [Released As "Verse Chorus Verse" On No Alternative]
TTITLE14=Jesus Doesn't Want Me For A Sunbeam [Solo Home Demo 1994]
TTITLE15=Do Re Mi [Solo Home Demo 1994]
TTITLE16=You Know You're Right [Solo Home Demo 1993]
TTITLE17=All Apologies [Solo Home Demo 1991]
EXTD=YEAR: 2004
EXTT0=
EXTT1=
EXTT2=
EXTT3=
EXTT4=
EXTT5=
EXTT6=
EXTT7=
EXTT8=
EXTT9=
EXTT10=
EXTT11=
EXTT12=
EXTT13=
EXTT14=
EXTT15=
EXTT16=
EXTT17=
PLAYORDER=
